<svg width="130" height="89" viewBox="0 0 130 89" fill="none" xmlns="http://www.w3.org/2000/svg">
<path d="M11.4609 81.4583V86.5722H16.8244V81.4583" stroke="black" stroke-width="3"/>
<path d="M112.869 81.4583V86.5722H118.233V81.4583" stroke="black" stroke-width="3"/>
<path d="M7.59167 80.4603V81.9603H9.09167H15.5777H17.0777V80.4603V43.8909C17.4861 40.8693 17.5314 38.5232 16.938 36.5527C16.3138 34.4801 15.0436 33.0092 13.2513 31.6256L13.1352 31.5359L13.0039 31.4705C10.3476 30.1464 7.5185 30.6337 5.51782 31.8689C3.62412 33.0381 1.9493 35.2783 2.66241 37.7232C3.5018 40.6012 4.70296 43.1463 7.59167 44.7273V80.4603Z" stroke="black" stroke-width="3"/>
<path d="M122.408 80.2178V81.7178H120.908H114.422H112.922V80.2178V43.6484C112.514 40.6267 112.469 38.2806 113.062 36.3102C113.686 34.2375 114.956 32.7666 116.749 31.383L116.865 31.2934L116.996 31.2279C119.652 29.9038 122.481 30.3911 124.482 31.6264C126.376 32.7956 128.051 35.0357 127.338 37.4807C126.498 40.3586 125.297 42.9038 122.408 44.4847V80.2178Z" stroke="black" stroke-width="3"/>
<path d="M17.6973 62.1216H16.1973V63.6216V80.0861V81.5861H17.6973H112.244H113.744V80.0861V63.6216V62.1216H112.244H17.6973Z" stroke="black" stroke-width="3"/>
<path d="M17.4473 50.2721H15.9473V51.7721V61.3764V62.8764H17.4473H63.9721H65.4721V61.3764V51.7721V50.2721H63.9721H17.4473Z" stroke="black" stroke-width="3"/>
<path d="M66.2188 50.2721H64.7188V51.7721V61.3764V62.8764H66.2188H112.744H114.244V61.3764V51.7721V50.2721H112.744H66.2188Z" stroke="black" stroke-width="3"/>
<path d="M9.78414 15.8472L7.4686 15.9333L8.49505 18.0107C11.5787 24.2515 13.3468 29.0019 14.3634 33.6469C15.3811 38.2967 15.6613 42.9092 15.699 48.9127L15.7103 50.7055L17.473 50.378C17.6897 50.3377 17.9045 50.2978 18.1173 50.2583C28.393 48.3486 34.232 47.2635 44.1377 47.285L45.641 47.2882V45.785V14.8516V13.1587L43.9605 13.3625C31.5026 14.8728 23.8899 15.3231 9.78414 15.8472Z" stroke="black" stroke-width="3"/>
<path d="M120.532 15.7226L122.848 15.8086L121.821 17.886C118.738 24.1269 116.97 28.8773 115.953 33.5223C114.935 38.1721 114.655 42.7846 114.617 48.788L114.606 50.5808L112.843 50.2534C112.627 50.2131 112.412 50.1732 112.199 50.1336C101.923 48.224 96.0845 47.1388 86.1787 47.1603L84.6754 47.1636V45.6603V14.7269V13.0341L86.3559 13.2378C98.8139 14.7482 106.426 15.1984 120.532 15.7226Z" stroke="black" stroke-width="3"/>
<path d="M44.5291 2.50641L42.6744 2.33441L42.9018 4.18314C44.8811 20.2727 44.7421 29.2474 42.9003 45.3653L42.7189 46.9527L44.3146 47.0336C52.1006 47.4287 56.2804 47.8671 63.6105 51.1457L64.1577 51.3905L64.7229 51.1906C71.9539 48.6342 76.1406 47.433 85.6151 47.0342L87.411 46.9587L87.0152 45.2053C83.4094 29.2315 83.8545 20.3538 87.0236 4.29034L87.4174 2.29467L85.3945 2.5083C69.44 4.19318 60.5261 3.98993 44.5291 2.50641Z" stroke="black" stroke-width="3"/>
</svg>
