<svg width="26" height="24" viewBox="0 0 26 24" fill="none" xmlns="http://www.w3.org/2000/svg">
<path d="M12.863 0C6.00772 0 0.449219 5.37321 0.449219 12C0.449219 18.6268 6.00772 24 12.863 24C19.7183 24 25.2768 18.6268 25.2768 12C25.2768 5.37321 19.7183 0 12.863 0ZM12.863 21.9643C7.17151 21.9643 2.55513 17.5018 2.55513 12C2.55513 6.49821 7.17151 2.03571 12.863 2.03571C18.5545 2.03571 23.1709 6.49821 23.1709 12C23.1709 17.5018 18.5545 21.9643 12.863 21.9643ZM13.0182 7.69554C14.4868 7.69554 15.4843 8.60089 15.5952 9.92946C15.6035 10.042 15.7004 10.1277 15.8168 10.1277H17.3879C17.46 10.1277 17.5182 10.0714 17.5182 10.0018C17.5182 7.67946 15.6229 6.05357 13.0099 6.05357C9.96461 6.05357 8.20784 8.04107 8.20784 11.325V12.7259C8.20784 15.9857 9.96461 17.9464 13.0099 17.9464C15.6146 17.9464 17.5182 16.3714 17.5182 14.1589C17.5182 14.0893 17.46 14.033 17.3879 14.033H15.8141C15.6977 14.033 15.6035 14.1188 15.5924 14.2286C15.476 15.4634 14.4812 16.3125 13.0154 16.3125C11.206 16.3125 10.1863 15.0295 10.1863 12.7339V11.325C10.1891 8.99464 11.2115 7.69554 13.0182 7.69554V7.69554Z" fill="white"/>
</svg>
