<svg width="72" height="69" viewBox="0 0 72 69" fill="none" xmlns="http://www.w3.org/2000/svg">
<path fill-rule="evenodd" clip-rule="evenodd" d="M21.3898 0.207C25.1957 0.0376363 26.4091 0 36.1037 0C45.7983 0 47.0118 0.0407727 50.8143 0.207C54.6169 0.373227 57.2125 0.959727 59.4837 1.80968C61.8619 2.67845 64.0195 4.0365 65.804 5.79286C67.6209 7.51473 69.0226 9.59727 69.9181 11.8994C70.8006 14.0948 71.404 16.6039 71.5792 20.2735C71.7544 23.9587 71.7934 25.1317 71.7934 34.5C71.7934 43.8715 71.7512 45.0445 71.5792 48.7234C71.4073 52.393 70.8006 54.902 69.9181 57.0975C69.0225 59.3999 67.6186 61.4859 65.804 63.2103C64.0195 64.9666 61.8619 66.3215 59.4837 67.1872C57.2125 68.0403 54.6169 68.6236 50.8208 68.793C47.0118 68.9624 45.7983 69 36.1037 69C26.4091 69 25.1957 68.9592 21.3898 68.793C17.5938 68.6268 14.9982 68.0403 12.727 67.1872C10.3453 66.3214 8.18734 64.9643 6.40344 63.2103C4.58774 61.4874 3.18265 59.4024 2.28615 57.1006C1.40688 54.9052 0.803404 52.3961 0.6282 48.7265C0.452997 45.0413 0.414062 43.8683 0.414062 34.5C0.414062 25.1285 0.456241 23.9555 0.6282 20.2797C0.80016 16.6039 1.40688 14.0948 2.28615 11.8994C3.18398 9.59753 4.59014 7.51257 6.40668 5.78973C8.18805 4.03494 10.3438 2.67671 12.7238 1.80968C14.9949 0.959727 17.5905 0.376364 21.3866 0.207H21.3898ZM50.5256 6.417C46.7619 6.25077 45.6329 6.21627 36.1037 6.21627C26.5746 6.21627 25.4455 6.25077 21.6819 6.417C18.2005 6.57068 16.3122 7.13209 15.0533 7.60568C13.3889 8.23295 12.1981 8.97627 10.949 10.1838C9.7649 11.2973 8.85363 12.653 8.28201 14.1513C7.79209 15.3682 7.21132 17.1935 7.05234 20.5589C6.88038 24.197 6.84469 25.2885 6.84469 34.5C6.84469 43.7115 6.88038 44.803 7.05234 48.4411C7.21132 51.8065 7.79209 53.6318 8.28201 54.8487C8.85304 56.3448 9.76475 57.7028 10.949 58.8162C12.1008 59.961 13.5057 60.8423 15.0533 61.3943C16.3122 61.8679 18.2005 62.4293 21.6819 62.583C25.4455 62.7492 26.5713 62.7837 36.1037 62.7837C45.6361 62.7837 46.7619 62.7492 50.5256 62.583C54.0069 62.4293 55.8953 61.8679 57.1541 61.3943C58.8186 60.7671 60.0093 60.0237 61.2584 58.8162C62.4427 57.7028 63.3544 56.3448 63.9254 54.8487C64.4154 53.6318 64.9961 51.8065 65.1551 48.4411C65.3271 44.803 65.3627 43.7115 65.3627 34.5C65.3627 25.2885 65.3271 24.197 65.1551 20.5589C64.9961 17.1935 64.4154 15.3682 63.9254 14.1513C63.2765 12.5423 62.5076 11.3913 61.2584 10.1838C60.1064 9.03922 58.704 8.15834 57.1541 7.60568C55.8953 7.13209 54.0069 6.57068 50.5256 6.417ZM31.5452 45.1354C34.091 46.1598 36.9258 46.2981 39.5654 45.5266C42.205 44.7551 44.4856 43.1216 46.0177 40.9052C47.5498 38.6888 48.2384 36.027 47.9658 33.3744C47.6932 30.7217 46.4764 28.2429 44.5232 26.3611C43.2781 25.1583 41.7726 24.2372 40.115 23.6643C38.4575 23.0914 36.6891 22.8809 34.9373 23.0479C33.1855 23.215 31.4938 23.7554 29.9839 24.6303C28.4741 25.5052 27.1837 26.6928 26.2057 28.1076C25.2277 29.5225 24.5863 31.1293 24.3278 32.8125C24.0693 34.4957 24.2001 36.2134 24.7107 37.8419C25.2214 39.4703 26.0992 40.9691 27.281 42.2303C28.4628 43.4914 29.9191 44.4836 31.5452 45.1354ZM23.1322 21.9608C24.8356 20.3141 26.8579 19.0079 29.0836 18.1168C31.3092 17.2256 33.6947 16.7669 36.1037 16.7669C38.5128 16.7669 40.8982 17.2256 43.1239 18.1168C45.3495 19.0079 47.3718 20.3141 49.0753 21.9608C50.7787 23.6075 52.13 25.5624 53.0519 27.7138C53.9738 29.8653 54.4483 32.1713 54.4483 34.5C54.4483 36.8287 53.9738 39.1347 53.0519 41.2862C52.13 43.4376 50.7787 45.3925 49.0753 47.0392C45.635 50.3648 40.969 52.2331 36.1037 52.2331C31.2384 52.2331 26.5724 50.3648 23.1322 47.0392C19.6919 43.7136 17.7592 39.2031 17.7592 34.5C17.7592 29.7969 19.6919 25.2864 23.1322 21.9608ZM58.5168 19.4078C58.939 19.0229 59.2769 18.56 59.5106 18.0466C59.7444 17.5331 59.8692 16.9795 59.8776 16.4186C59.8861 15.8577 59.778 15.3009 59.5599 14.7811C59.3417 14.2613 59.0179 13.7891 58.6075 13.3924C58.1972 12.9957 57.7087 12.6827 57.171 12.4718C56.6332 12.2609 56.0572 12.1565 55.4769 12.1646C54.8967 12.1728 54.324 12.2935 53.7929 12.5194C53.2617 12.7454 52.7829 13.072 52.3847 13.4801C51.6103 14.2737 51.1863 15.3278 51.2027 16.4186C51.2192 17.5095 51.6748 18.5512 52.4728 19.3226C53.2708 20.0941 54.3485 20.5345 55.4769 20.5504C56.6054 20.5663 57.6959 20.1564 58.5168 19.4078Z" fill="white"/>
</svg>
