<svg width="17" height="25" viewBox="0 0 17 25" fill="none" xmlns="http://www.w3.org/2000/svg">
<path d="M0.888133 13.6447L0.938852 11.4674C3.04498 11.6098 4.92589 11.5675 6.37968 10.989C7.11364 10.6969 7.73942 10.2679 8.23015 9.65697C8.72077 9.04614 9.07448 8.2558 9.26801 7.24372L9.2792 7.18522L9.21963 7.18488L0.244165 7.13335L1.65176 4.77615L8.85196 4.8798L8.93204 4.88095L8.89732 4.80878C8.33774 3.64582 7.28887 2.99653 5.795 2.65891C4.3234 2.32633 2.41269 2.29438 0.0955277 2.37418L1.65023 0.0724447L16.8817 0.0496775L15.426 2.32471H11.2102H11.095L11.1742 2.40832C11.9476 3.22465 12.5042 4.15502 12.5226 4.93575L12.5238 4.9847L12.5728 4.98412L16.8806 4.93297L15.4259 7.1846L12.5189 7.23639L12.4761 7.23715L12.4706 7.27951C12.017 10.7539 8.82368 12.8221 4.76134 13.298L4.67369 13.3083L4.7281 13.3778L13.7882 24.9474L9.92333 24.9495L0.888133 13.6447Z" fill="black" stroke="black" stroke-width="0.099084"/>
</svg>
