<svg width="72" height="56" viewBox="0 0 72 56" fill="none" xmlns="http://www.w3.org/2000/svg">
<path d="M71.7231 6.64262C69.0981 7.76514 66.2783 8.5236 63.3138 8.86642C66.3726 7.1001 68.661 4.32012 69.752 1.04521C66.8782 2.69255 63.733 3.85209 60.4531 4.47344C58.2475 2.20069 55.3261 0.694275 52.1424 0.188074C48.9587 -0.318127 45.691 0.204207 42.8464 1.67398C40.0019 3.14375 37.7397 5.47873 36.4111 8.3164C35.0826 11.1541 34.7619 14.3357 35.499 17.3672C29.676 17.085 23.9795 15.6244 18.7793 13.0801C13.5791 10.5358 8.99138 6.9647 5.31383 2.59853C4.05638 4.69187 3.33334 7.11893 3.33334 9.70376C3.33194 12.0307 3.92571 14.322 5.06196 16.3743C6.19821 18.4267 7.84182 20.1766 9.84695 21.4689C7.52153 21.3975 5.24742 20.7911 3.21389 19.7002V19.8822C3.21365 23.1459 4.38342 26.309 6.52471 28.8351C8.66599 31.3611 11.6469 33.0944 14.9616 33.7408C12.8044 34.3042 10.5428 34.3872 8.34744 33.9835C9.28266 36.7916 11.1044 39.2473 13.5576 41.0066C16.0108 42.7659 18.9727 43.7408 22.0285 43.7949C16.841 47.7249 10.4345 49.8567 3.83947 49.8474C2.67124 49.8477 1.50399 49.7818 0.34375 49.6502C7.03804 53.804 14.8307 56.0085 22.7893 56C49.7302 56 64.4581 34.4659 64.4581 15.7896C64.4581 15.1828 64.4424 14.57 64.4141 13.9632C67.2789 11.9639 69.7517 9.48804 71.7168 6.65172L71.7231 6.64262Z" fill="white"/>
</svg>
